<svg xmlns="http://www.w3.org/2000/svg" width="320" height="72" fill="none"><path fill="#fff" d="M0 0h320v72H0z"/><g clip-path="url(#a)"><path fill="#9E812D" d="M69.594 46.757h-1.837v-.366h1.497v-.805h-1.497v-.366h1.497v-.805h-1.497v-.365h1.837v-.879h-1.497c.204-.365.34-.658.408-.878h-.884c-.136.293-.34.659-.545.878h-1.02c.204-.365.34-.658.408-.878h-.885c-.136.293-.34.659-.476.878v4.391h4.491v-.805Zm-2.654 0h-1.02v-.366h1.02v.366Zm0-1.244h-1.02v-.366h1.02v.366Zm0-1.17h-1.02v-.367h1.02v.366ZM64.899 47.343v-.805c-.204.073-.34.073-.545.146v-1.61h.545v-.805h-.545v-1.902h-.816v1.902h-.953v.805h.953v2.122c-.34.22-.68.512-.953.732v1.098c.204-.22.476-.513.885-.879v3.293h.816v-3.878a3.01 3.01 0 0 0 .613-.22ZM68.914 47.855H64.83v.805h1.293c-.477.585-1.021 1.536-1.293 2.78h.816c.34-1.536 1.293-2.488 1.565-2.78h.613l-.272 1.024h1.429v.659c0 .146-.136.292-.272.292h-.477v.732h.477c.612 0 1.088-.439 1.088-1.024v-1.464h-1.225l.34-1.024ZM72.725 44.342h-.749v-2.049h-.817v2.05h-.68v.804h.68v6.22h.817v-6.22h.749v-.805Z"/><path fill="#9E812D" d="M74.97 47.708h-1.157v-.658h-.816v.658h-.68v.805h.68c-.068 1.098-.272 2.342-.749 2.927h.885c.34-.804.544-1.975.612-2.927h.409c-.069.805-.205 2.196-.613 2.927h.885c.544-1.317.544-3.22.544-3.292v-.44ZM73.133 46.538h.953c.476-.805.816-1.537.952-2.269H76.4c-.068.659-.136 1.756-.544 2.269h.885c.408-1.025.408-2.488.408-2.635v-.439h-1.974c.068-.512.136-.878.136-1.17h-.816c0 .292-.068.658-.136 1.17h-1.43v.805h1.226c-.068.732-.409 1.537-1.021 2.269ZM76.535 47.709v-.586h-.816v.659h-.545v.805h.545c-.068 1.097-.272 2.341-.749 2.927h.885c.34-.805.544-1.976.612-2.927h.409c-.068.804-.205 2.195-.613 2.927h.885c.544-1.318.544-3.22.544-3.293v-.44h-1.157v-.072ZM58.842 49.318h2.11v-.805h-2.11V47.05h1.837v-.805c.409.512.817.878 1.225 1.097v-1.024c-1.02-.878-2.381-3.073-2.994-4.098h-.953c-.612 1.025-1.973 3.147-2.994 4.098v1.024c.408-.22.817-.658 1.225-1.097v.805h1.837v1.463h-2.11v.805h2.11v1.317h-3.13v.805h7.145v-.805h-3.13v-1.317h-.068Zm-2.654-3.073c.885-1.025 1.77-2.415 2.178-3.147.476.732 1.293 2.122 2.177 3.147h-4.355Z"/><path fill="#E9C24E" d="M68.233 23.633c.34.366.817.659 1.361.659 1.021 0 1.838-.879 1.838-1.976 0-1.098-.817-2.05-1.838-2.05-1.02 0-1.837.879-1.837 1.977v.073l1.633-.073c.068 0 .068.073.068.146l-1.225 1.244Z"/><path fill="#E9C24E" d="M66.872 25.023c.68.805 1.633 1.244 2.722 1.244 2.042 0 3.743-1.83 3.743-4.024 0-2.196-1.701-3.952-3.743-3.952-2.041 0-3.743 1.83-3.743 4.025v.22l.953-.074v-.146c0-1.683 1.225-3 2.79-3s2.79 1.317 2.79 3-1.225 3-2.79 3c-.816 0-1.497-.366-2.041-.951l-.68.658Z"/><path fill="#E9C24E" d="M69.594 28.243c3.063 0 5.58-2.707 5.58-6s-2.518-6-5.58-6c-3.062 0-5.58 2.707-5.58 6v.292l.953-.073v-.22c0-2.78 2.11-4.975 4.627-4.975 2.586 0 4.628 2.268 4.628 4.976 0 2.78-2.11 4.976-4.628 4.976-1.36 0-2.518-.586-3.402-1.61l-.68.732c1.02 1.17 2.449 1.902 4.082 1.902Z"/><path fill="#E9C24E" d="M69.594 14.486c-4.015 0-7.281 3.512-7.281 7.83v.512c.204-.073.476-.073.748-.146v-.366c0-3.879 2.926-7.025 6.533-7.025s6.533 3.146 6.533 7.025c0 3.878-2.926 7.025-6.533 7.025-1.497 0-2.926-.586-4.015-1.537l.204 1.098c1.09.732 2.45 1.244 3.88 1.244 4.014 0 7.28-3.513 7.28-7.83-.135-4.39-3.334-7.83-7.349-7.83Z"/><mask id="b" width="46" height="36" x="24" y="22" maskUnits="userSpaceOnUse" style="mask-type:luminance"><path fill="#fff" d="m69.39 22.243-5.784.292c-3.743.22-5.036 3.074-6.26 5.855-.205.512-.613 1.39-1.158 2.195-1.089 1.683-2.382 3.659-8.302 3.44-5.852-.22-10.208 4.756-11.024 5.78l-1.293 1.537c-.068.073 0 .146.068.146l1.837-.439c4.628-1.024 6.533-.878 7.282-.658.272.073.476.22.612.512.885 1.537 4.423 7.757 5.716 10.025.204.293.204.659.136.878-.136.22-.272.44-.748.586-2.314.951-8.847 3.293-8.915 3.293-.272.073-.544.073-.748 0-.409-.074-.749-.366-.953-.732l-13.338-23.71c-.136-.439-.204-.731-.068-1.024.136-.366.544-.512.612-.512 2.314-.659 7.69-1.756 8.847-1.903 1.43-.22 1.837.073 2.178.586.884 1.536 3.13 5.488 3.402 6 0 .073.068.073.136.073l1.157-.512c.068 0 .068-.073.068-.146-.408-.659-2.654-4.757-3.607-6.294-.544-.95-1.497-1.61-3.13-1.317-1.633.293-9.119 1.903-9.459 1.976-.136 0-1.02.366-1.497 1.39-.272.659-.272 1.464.068 2.342L38.903 56.27c.136.22.817 1.244 2.246 1.244.272 0 .544-.073.816-.073l9.051-3.44c.136-.073 1.361-.585 1.702-1.756.136-.439.136-1.097-.409-2.122-1.497-2.561-5.852-10.318-5.92-10.391-.477-.732-1.77-1.317-6.465-.585-.068 0-.068-.073-.068-.073 1.905-1.61 4.764-3.586 7.962-3.44 6.329.22 7.962-1.61 9.595-4.244a8.796 8.796 0 0 0 1.02-1.976c1.226-2.78 2.178-5.196 5.24-5.342l2.042-.146-2.11 2.122.137.512c0 .073 2.382 7.025-2.314 10.099-4.491 3-7.962 1.756-8.506 1.463-.068 0-.068 0-.136.073l-.477 1.318c0 .073 0 .073.068.146.613.293 4.696 1.83 9.868-1.61 2.381-1.537 3.606-4.171 3.606-7.464 0-1.756-.34-3.22-.544-4.025l4.151-4.171s0-.146-.068-.146Z"/></mask><g mask="url(#b)"><path fill="url(#c)" d="M8.484 39.878 47.205-1.686l38.653 41.564-38.653 41.638-38.72-41.638Z"/></g><path fill="#9E812D" d="M93.412 46.61h4.491V45.368h-4.49v-2.561h3.946v-1.244h-9.527v1.244h3.947v2.56h-4.492v1.245h4.492v3.585h-5.92v1.245h13.474v-1.245h-5.92v-3.585Z"/><path fill="#9E812D" d="M93.344 36.366h-1.497c-.953 1.537-4.56 4.39-6.125 5.122v1.098c1.293-.366 4.968-2.854 6.874-4.83 2.041 1.976 5.716 4.318 7.077 4.83v-1.098c-1.021-.658-4.696-3.146-6.329-5.122ZM109.336 44.269h3.471v-1.244h-3.403V40.83h3.811v-1.244h-9.119v1.244h3.675v2.195h-3.335v1.244h3.403v3.659h-3.947v1.244h9.663v-1.244h-4.083v-3.659h-.136Z"/><path fill="#9E812D" d="M115.529 48.88V37.39c0-.292-.136-.439-.409-.439h-12.929c-.273 0-.409.147-.409.44V50.928c0 .293.136.44.409.44h12.929c.273 0 .409-.147.409-.44V48.88Zm-12.181 1.682V37.756h10.615V50.49h-10.615v.073Z"/><path fill="#9E812D" d="m110.221 44.855 1.157 2.049h1.361l-1.157-2.05h-1.361ZM122.538 45.074v-1.317l-1.429.512V40.39h1.429v-1.244h-1.429v-2.708h-1.565v2.708h-1.974v1.244h1.974v4.463l-1.974.732v1.317l1.974-.731v3.512c0 .293 0 .512-.068.732 0 .22-.068.366-.205.366h-.34c-.136 0-.272 0-.476-.073v.878c.34 0 .68.073 1.021.073.34 0 .68 0 .884-.073.204-.074.409-.147.477-.293.136-.146.204-.366.204-.659 0-.292.068-.658.068-1.097v-4.025l1.429-.44Z"/><path fill="#9E812D" d="M122.538 42.074c.272-.147 1.293-1.171 1.429-1.317l-.068 3.805c0 .293.136.512.408.512h8.098V44.05h-3.062v-1.39H131.861v-.806h-2.518V40.61h2.518V39.805h-2.518v-1.244h2.994v-1.097h-2.994v-1.39h-1.565v1.39H125.6c.136-.366.477-1.098.545-1.39h-1.566c0 .512-1.088 3.585-2.109 4.683v1.317h.068Zm5.308 1.902h-2.45v-1.39h2.45v1.39Zm0-2.122h-2.45V40.61h2.45v1.244Zm0-1.975h-2.45v-1.245h2.45v1.245ZM132.201 47.489h-2.041l.34-1.171c.068-.146.068-.293 0-.366a.5.5 0 0 0-.34-.146h-7.282v.951h2.79c-.204 1.098-.612 1.976-1.089 2.634a4.746 4.746 0 0 1-2.041 1.61v1.025c1.429-.44 2.654-1.318 3.402-2.196.749-.878 1.157-1.829 1.361-3.073h1.702l-.341 1.098c-.068.146-.068.292 0 .366a.503.503 0 0 0 .341.146h2.041c0 .512 0 2.415-.884 2.415h-1.498v.878H130.228c1.837 0 2.041-1.025 2.109-1.537.136-.585.204-1.244.272-2.122.068-.366-.068-.512-.408-.512ZM147.104 37.683v-1.025h-1.633v1.025h-3.13v-1.244h-1.702v1.244h-3.13v-1.025h-1.633v1.025h-1.633v1.098h1.633v2.341c0 .293.136.44.408.44h10.344c.272 0 .408-.147.408-.44v-2.341h1.633v-1.098h-1.565Zm-9.595 1.098h3.13v1.756h-3.13V38.78Zm8.03 1.756h-3.13V38.78h3.13v1.756ZM148.193 42.805h-13.338c-.272 0-.408.147-.408.513v2.415h1.633V43.83h4.559v2.122h-4.151c-.272 0-.408.146-.408.44v4.243h1.633V47.05h2.994v5.049h1.702v-5.05h3.13v2.781c0 .074-.068.074-.204.074h-.885v.95h1.021c.34 0 .681 0 .885-.072a.742.742 0 0 0 .544-.22c.136-.073.204-.292.204-.439 0-.22.068-.512.068-.878v-2.854c0-.293-.136-.439-.408-.439h-4.355v-2.049h4.695v1.903h1.633V43.39c-.068-.366-.204-.586-.544-.586ZM152.412 39.805h4.56v3.732h1.633v-3.732h4.559v2.854h1.634v-3.146c0-.293-.136-.44-.409-.44h-5.716v-1.097h5.512v-1.098h-12.589v1.098h5.512v1.098h-5.716c-.273 0-.409.146-.409.439v3.146h1.633l-.204-2.854ZM163.913 48.294v-3.586c0-.293-.136-.439-.408-.439H152.14c-.272 0-.408.146-.408.44v4.39c0 .293.136.439.408.439h4.764v.22c0 1.975.408 2.121 2.518 2.121h2.586c2.449 0 3.198-.292 3.198-3.585h-1.293Zm-1.565-1.903h-3.811v-1.39h3.811v1.39Zm-3.811.805h3.811v1.537h-3.811v-1.537Zm-5.24-2.195h3.607v1.39h-3.607v-1.39Zm3.607 3.732h-3.607v-1.537h3.607v1.537ZM161.939 51h-2.858c-.544 0-.544-.439-.544-1.463h4.9c0 1.244-.068 1.463-1.498 1.463Z"/><path fill="#9E812D" d="M156.359 40.683h-3.334v.732h3.334v-.732ZM156.359 42.44h-3.334v.732h3.334v-.732ZM162.484 40.683h-3.335v.732h3.335v-.732ZM162.484 42.44h-3.335v.732h3.335v-.732ZM172.351 46.977h-4.559c-.272 0-.408.146-.408.512v4.098c0 .292.136.512.408.512h4.559c.272 0 .409-.146.409-.512v-4.098c0-.293-.137-.512-.409-.512Zm-3.47 1.17h2.381v2.854h-2.381v-2.854ZM172.623 36.951h-5.171v1.098h5.171v-1.098ZM172.964 39.44h-5.989v1.097h5.989V39.44ZM172.555 41.928h-4.967v1.097h4.967v-1.097ZM172.555 44.416h-4.967v1.097h4.967v-1.097ZM181.198 42.293v-1.097h-3.267v-2.708c.477-.073 2.382-.585 2.791-.732V36.66c-1.089.366-2.518.732-3.675.878-1.089.22-2.45.366-3.675.439V39c.544-.073 2.518-.22 2.926-.292v2.415h-3.266v1.097h3.266v3h-2.586c-.272 0-.408.147-.408.44v5.78c0 .293.136.513.476.513h6.737c.273 0 .409-.147.409-.513v-5.78c0-.293-.136-.44-.409-.44h-2.518v-3h3.199v.073Zm-1.838 8.635h-4.355v-4.537h4.355v4.537ZM183.988 47.343h4.219c.272 0 .408-.147.408-.44v-9.44c0-.292-.136-.512-.408-.512h-4.219c-.272 0-.476.147-.476.513v9.44c.068.292.204.439.476.439Zm3.13-7.172h-2.041V38.05h2.041v2.122Zm0 3.074h-2.041v-2.269h2.041v2.269Zm0 3h-2.041V44.05h2.041v2.195ZM182.695 51.733h1.429c.681-.878 1.429-2.341 1.701-3.512h-1.429c0 .732-1.225 3-1.701 3.512Z"/><path fill="#9E812D" d="M197.87 38.122v-1.098h-8.166c-.272 0-.408.147-.408.44V42c0 1.536-.068 2.927-.204 4.244-.136 1.317-.409 2.561-.817 3.44-.068-.22-.544-1.318-.612-1.538h-1.429c.272.513.748 1.757.952 2.342h.749v1.244c1.225-.512 2.11-2.561 2.518-4.244.272-1.39.408-2.927.408-4.61v-1.025h5.036a13.712 13.712 0 0 1-.817 2.708c-.34.805-.68 1.536-1.089 2.122-.272-.512-.612-1.025-.884-1.683-.204-.586-.477-1.317-.545-2.05h-1.497c.068.806.545 2.123.885 2.782.272.731.68 1.39 1.157 2.122l-1.565 1.683c-.545.439-1.021.805-1.566 1.024v1.025c.068 0 .137 0 .205-.074.748-.219 1.633-.731 2.177-1.17.613-.44 1.157-.878 1.565-1.39.885.95 2.246 2.268 3.811 2.707l.068-1.025c-.476-.292-.952-.658-1.497-1.097a10.456 10.456 0 0 1-1.429-1.61c.613-.878 1.157-1.756 1.565-2.708.409-.951.817-2.122 1.021-3.22.068-.292.068-1.17.068-1.17h-6.669v-2.854h7.009v.146ZM201.409 44.342h10.14v2.342h1.633v-3c0-.293-.136-.44-.408-.44h-12.522c-.272 0-.408.147-.408.44v3h1.633l-.068-2.342ZM205.628 38.854v1.83h-5.036v1.024h11.841v-1.025h-5.103v-1.83h6.124v-1.097h-6.124V36.44h-1.702v1.317h-6.124v1.098h6.124Z"/><path fill="#9E812D" d="M203.927 45.147c0 .805-.272 1.757-.408 2.269-.205.512-.409 1.024-.749 1.463-.34.44-.681.805-1.157 1.098-.476.293-1.089.659-1.701.878v1.025c1.701-.293 3.334-1.39 4.151-2.342.817-.951 1.429-2.708 1.497-4.318h-1.633v-.073ZM212.025 48.733c0 1.317-.204 1.903-.953 1.903h-1.089c-.612 0-1.02-.074-1.02-.952v-4.463h-1.634v4.683c0 1.463 1.225 1.61 1.906 1.61h2.246c1.633 0 2.109-.732 2.109-2.854h-1.565v.073ZM218.422 36.439c-.204 1.683-.749 3.22-1.293 4.464-.545 1.244-1.157 2.488-1.906 3.512v1.537c.273-.146 1.634-1.756 1.77-1.903v7.977h1.633V41.269c.272-.659 1.429-3.22 1.565-4.83h-1.769Z"/><path fill="#9E812D" d="M228.766 48.148c0 .878-.341 1.756-.477 1.902-.272.366-.816.293-1.157-.366-.816-1.39-1.565-3.293-1.905-7.39h4.287v-1.098h-4.355a93.87 93.87 0 0 1-.136-4.83h-1.633c0 1.756.068 3.366.136 4.83h-3.811v1.097h3.879c.612 6.806 2.245 9.513 4.287 9.513.544 0 1.361-.439 1.701-1.097.34-.586.545-1.318.613-2.562h-1.429Z"/><path fill="#9E812D" d="m229.31 40.39-1.837-3.878h-1.43l1.77 3.879h1.497ZM246.255 50.27h-4.22v-2.342h3.879V46.83h-3.879v-2.195h3.471c.272 0 .408-.146.408-.439v-6.805c0-.293-.136-.44-.408-.44H237c-.273 0-.409.147-.409.44v6.805c0 .293.136.439.409.439h3.402v2.195h-3.606v1.098h3.606v2.342h-4.627v1.097h10.548V50.27h-.068Zm-4.22-9.074h2.246v2.341h-2.246v-2.341Zm0-3.22h2.246v2.195h-2.246v-2.195Zm-1.633 2.122h-2.245v-2.195h2.245v2.195Zm0 3.44h-2.245v-2.342h2.245v2.341Z"/><path fill="#9E812D" d="m236.047 47.635-1.157.512v-4.39h1.157v-1.098h-1.157v-4.171h1.293V37.39h-4.423v1.098h1.497v4.171h-1.361v1.098h1.361v5.049l-1.565.586v1.17l4.355-1.756v-1.17ZM262.315 39.074v-1.098h-5.785v-1.903h-1.701v1.903h-5.24c-.272 0-.408.146-.408.439v3.805c0 1.683-.136 6.586-1.089 7.464v1.683c1.633-1.024 2.722-3.512 2.722-8.342V39h4.491v6.074h-3.47c-.272 0-.408.146-.408.44v5.341c0 .293.136.44.408.44h9.459c.272 0 .476-.147.476-.44v-5.342c0-.293-.136-.439-.408-.439h-4.355v-2.707h5.24v-1.098h-5.24V39h5.308v.074ZM253.06 50.27v-4.098h7.077v4.098h-7.077ZM268.507 41.269V40.17h-1.565v-3.732h-1.633v3.732h-1.429v1.098h1.429v10.684h1.633V41.269h1.565ZM270.889 40.39a5.98 5.98 0 0 1-2.178 1.318v.878c1.498-.293 2.791-1.098 3.539-1.756.681-.659 1.157-1.39 1.429-2.196h2.994c0 .879 0 2.05-.204 2.342-.068.22-.34.44-.68.44-.204 0-1.157 0-1.429-.074v.878c.34 0 1.701.073 1.905.073.613 0 1.089-.146 1.361-.366s.477-.658.545-1.244c.068-.292.136-1.83.136-2.707 0-.293-.136-.512-.409-.512h-3.947c0-.22.137-1.245.137-1.464h-1.634c0 .22-.136 1.317-.136 1.464h-3.811v1.097h3.471c-.204.805-.544 1.39-1.089 1.83Z"/><path fill="#9E812D" d="M272.658 44.562h-2.245v-1.464h-1.565v1.464h-1.293v1.097h1.293c0 1.61-.545 4.903-1.361 5.196v1.098c.884-.293 1.837-1.244 2.381-2.781.273-.805.545-2.78.545-3.513h1.157s0 3.66-.068 4.245c-.068.365-.205.585-.409.658-.272.073-.612 0-.952-.073v.951c.272 0 1.156.074 1.497.074.34 0 .68-.074.884-.293.341-.293.409-.878.477-1.976.068-.512.068-3.22.068-4.244 0-.22-.136-.44-.409-.44ZM278.443 44.562h-2.246v-1.464h-1.565v1.464h-1.293v1.097h1.293c0 1.61-.544 4.903-1.361 5.196v1.098c.885-.293 1.837-1.244 2.382-2.781.272-.805.544-2.78.544-3.513h1.157s0 3.66-.068 4.245c-.068.365-.204.585-.408.658-.272.073-.613 0-.953-.073v.951c.272 0 1.157.074 1.497.074.34 0 .681-.074.885-.293.34-.293.408-.878.476-1.976.068-.512.068-3.22.068-4.244.068-.22-.068-.44-.408-.44ZM288.514 36.439h-1.497c-.952 1.537-4.763 4.39-6.26 5.122v1.098c1.293-.366 5.171-2.854 7.009-4.83 2.041 1.976 5.92 4.318 7.281 4.83v-1.098c-1.089-.658-4.899-3.146-6.533-5.122Z"/><path fill="#9E812D" d="M292.189 41.415h-8.778v1.098h8.778v-1.098ZM290.352 46.83s1.225 2.269 1.565 3l-6.737.44c.68-1.61 1.361-3.293 1.837-4.684h7.418V44.49h-13.406v1.097h4.355c-.34.952-.612 1.83-.953 2.635-.34.805-.612 1.536-.952 2.195l-2.178.146v1.098l11.228-.805c.205.439.545 1.024.545 1.024h1.769a775.86 775.86 0 0 0-2.994-5.122l-1.497.073ZM95.113 24.511h-9.39v.878h9.39v-.878ZM117.91 23.194v-.805h-2.109v-2.415h-1.157v2.415h-2.178v.805h2.178v6h-2.79v.879h6.056v-.878h-2.109v-6.001h2.109Z"/><path fill="#9E812D" d="M112.058 26.414c-.136-.366-.885-1.244-1.225-1.61.272-.366.953-1.61 1.089-2.195.068-.293.136-.952.136-.952h-1.565v-1.83h-1.089v1.83h-1.361v.732h2.858c-.34.878-.748 1.683-1.293 2.342-.476.658-1.089 1.17-1.769 1.683v.878c.272-.146.748-.44.953-.659.204-.146.408-.366.612-.512v4.244h1.021V25.61c.408.22 1.361 1.39 1.633 1.902v-1.097ZM99.74 23.926l-.612-1.757h-.884l.612 1.757h.885ZM106.342 25.609c.068-.147.068-.293.068-.366v-.585h-4.9v.804h3.743c-.204.44-.408.878-.613 1.244-.204.366-.476.805-.68 1.025a10.83 10.83 0 0 1-1.361-1.756h-1.021c.272.658 1.293 1.83 1.77 2.268-.273.366-1.498 1.171-1.974 1.317v.659c.749-.146 2.246-1.024 2.654-1.39.34.366 1.974 1.317 2.586 1.463v-.659c-.408-.146-1.565-.878-1.974-1.317.681-.805 1.293-1.683 1.702-2.707ZM105.933 22.462c0 .366.068.951-.204.951h-.272c-.068 0-.136-.146-.136-.292v-2.635c0-.22-.068-.292-.272-.292h-2.79c-.204 0-.273.073-.273.292v.366c0 1.683-.068 2.415-.612 2.78v.66c.681-.147 1.633-.805 1.633-3.074v-.366h1.225v2.708c0 .512.408.512.953.512h.748c.953 0 1.021-.951 1.021-1.537h-1.021v-.073Z"/><path fill="#9E812D" d="M101.034 24.658v-3.586c0-.22-.068-.293-.272-.293h-1.157v-.951h-1.09v.951H97.36c-.204 0-.272.073-.272.293v3.951h-.477v.66l.477-.074c0 1.244-.068 3.586-.545 4.025v.731c.545 0 1.566-.804 1.566-4.83l.476-.073v3.074h.885v-3.074l.612-.073v3.513c0 .732-.408.732-.817.732v.731h.749c.885 0 1.089-.658 1.089-1.097v-3.952l.204-.073v-.585h-.272Zm-1.021.146-1.974.22v-3.66h1.974v3.44ZM128.731 20.486c0-.22-.068-.292-.273-.292h-8.778c-.204 0-.272.073-.272.292v9.22c0 .22.068.293.272.293h8.778c.205 0 .273-.073.273-.292v-9.22Zm-8.235 8.928v-8.635h7.146v8.635h-7.146Z"/><path fill="#9E812D" d="M126.349 21.291h-1.089v1.171h-4.287v.878h4.287v4.464c0 .073-.068.073-.204.073-.34.073-1.021 0-1.293 0v.586c.272 0 1.633.073 1.973 0 .205 0 .545-.147.613-.659v-4.537h.884v-.878h-.884V21.29Z"/><path fill="#9E812D" d="M123.15 24.145h-1.225l1.021 2.122h1.225l-1.021-2.122ZM149.486 28.024a7.074 7.074 0 0 1-1.293-1.903 11.63 11.63 0 0 1-.816-2.341c-.205-.806-.273-1.684-.273-2.635v-1.317h-1.157v1.317c0 .951-.068 1.83-.272 2.634-.204.805-.476 1.61-.816 2.342-.341.732-.817 1.317-1.293 1.903-.477.512-1.021 1.097-1.566 1.463v.878c.613-.146 1.225-.731 1.702-1.17a5.47 5.47 0 0 0 1.225-1.318c.34-.439.68-.95.952-1.536.273-.586.545-1.098.749-1.683.204.585.408 1.17.68 1.756.273.512.613 1.024.953 1.537.34.439.749.878 1.225 1.317.408.366 1.021.878 1.701 1.024v-.732c-.68-.439-1.225-1.024-1.701-1.536ZM132.405 26.267c-.272 1.464-1.157 2.269-2.041 2.561v1.39c1.361-.145 2.45-2.56 2.654-3.95h-.613ZM132.541 21.218c-.272-.22-1.429-1.024-1.769-1.317v1.025c.136.146 1.565 1.17 1.769 1.463v-1.17ZM132.269 25.243v-1.17c-.408-.367-1.429-1.245-1.769-1.464v1.024c.204.073 1.429 1.244 1.769 1.61Z"/><path fill="#9E812D" d="M140.435 30.146c0-.073-1.497-3.22-1.769-3.659h-1.089c.136.22.817 1.83 1.021 2.195l-3.266.366c.204-.585.476-1.244.68-1.83.204-.658.408-1.316.613-2.048h3.674v-.878h-3.198v-2.269h2.654v-.878h-2.654v-1.317h-1.157v1.317h-2.518v.878h2.518v2.269h-3.062v.878h2.518c-.205.732-.409 1.463-.681 2.195-.204.659-.476 1.317-.68 1.903h-1.157v.878l6.124-.659c.136.22.341.659.341.659h1.088Z"/></g><defs><linearGradient id="c" x1="35.878" x2="67.178" y1="52.028" y2="22.921" gradientUnits="userSpaceOnUse"><stop stop-color="#8A6E32"/><stop offset=".2" stop-color="#9E812D"/><stop offset=".5" stop-color="#DFC05F"/><stop offset=".8" stop-color="#9E812D"/><stop offset="1" stop-color="#8A6E32"/></linearGradient><clipPath id="a"><path fill="#fff" d="M24 13.169h272v45.663H24z"/></clipPath></defs></svg>