<svg xmlns="http://www.w3.org/2000/svg" width="120" height="55" fill="none"><g clip-path="url(#a)"><path fill="#fff" d="M2.407 19.264h4.96v23.1h8.594v-23.1h4.96v-6.428H2.406v6.428Zm34.807.103v-6.428H22.71v29.425h14.504v-6.435h-5.91v-5.803h5.327v-5.898h-5.327v-4.861h5.91Zm23.598 22.997V12.939H49.637c-1.429 0-9.128.42-9.128 8.415 0 5.019 4.009 7.102 4.48 7.425v.99l-6.27 12.595h8.192l4.398-8.36V26.11s-3.739-1.567-3.739-4.386 3.635-4.029 5.216-4.029v24.675h8.026v-.007Z"/><path fill="#C8161E" d="M64.079 42.364V12.939H75.26c1.429 0 9.128.42 9.128 8.415 0 5.018-4.009 7.102-4.48 7.425v.99l6.54 12.595H77.98l-4.397-8.36V26.11s3.738-1.567 3.738-4.386-3.634-4.029-5.216-4.029v24.675h-8.025v-.007Z"/><path fill="#fff" d="M106.717 42.364h8.337L96.437 12.925h-8.15v29.439h8.15v-4.015h7.741l2.532 4.015h.007Zm-10.273-10.14V24.68l4.772 7.542h-4.772Z"/><path fill="#C8161E" d="M62.601 0s-.714 1.059-.832 1.3c-.118.233.236.707-.243 1.175-.479.474-.715.474-.715 1.066 0 .59-.95 2.365-.95 2.365s-.95.942-1.068 1.299c-.118.35-.236.708-.59 1.293-.367.598-1.075 1.182-.242 1.182.832 0 1.664-.357 2.025-.24.36.116 1.2.35 1.79.24.59-.117 2.018.117 2.386 0 .354-.117 1.304-.117 1.782-.117.48 0 1.783.234 2.144 0 .354-.24.354-.942 0-1.292-.36-.351-.715-.351-.95-.95-.236-.59-.833-.831-.833-1.182 0-.35.125-.708-.243-1.182-.353-.474-1.304-1.3-1.304-1.3l-.485-1.182-.354-.942-1.075-.942L62.6 0Z"/><path fill="#8FC31F" d="M120 54.993s-.215-.041-.319-.124c-.173-.144-.25-.385-.451-.495-.305-.172-.673-.02-.985-.137-.243-.09-.451-.53-.749-.433-.361.117-1.311-.358-1.311-.358s-.95-.942-1.665-1.175c-.714-.241-1.9-.825-3.808-3.19-1.907-2.352-2.497-.468-3.1.474-.59.942-.833 1.416-1.783 2.008-.95.59-1.547-.942-2.261-1.066-.715-.117-1.068-1.066-2.026-2.008-.95-.941-1.429-1.65-2.497-1.883-1.068-.241-2.615-.241-3.69-.241-1.075 0-2.15.591-3.094.715-.957.117-2.975-1.3-3.808-2.008-.832-.708-2.74-1.423-4.404-1.423-1.665 0-.833 1.3-1.43 1.774-.596.474-.707.825-.95 1.533-.242.708-.117 1.066-.59 1.65-.478.591-.72.825-2.503.24-1.79-.59-2.143-.707-2.74-.948-.597-.234-1.311-.825-1.9-1.059-.597-.233-1.2.241-1.79-.948-.597-1.176-1.908-2.242-2.026-1.65-.118.59-1.547 1.299-1.547 1.299l-1.79.474s-.713.942-1.067 1.3c-.354.357-1.193.591-1.193.591s-3.573.117-3.926-.234c-.361-.357-1.672-1.54-2.622-1.773-.95-.234-1.783-.351-2.615.116-.84.475-1.436.351-1.436.942s-.95.825-1.9 1.066c-.958.234-2.387-.117-2.74-.117-.354 0-1.665-.234-2.262-.474-.596-.234-.84-1.65-1.672-1.884-.832-.24-1.546-.468-2.733-.825-1.193-.35-1.546-.591-1.664.24-.125.825-.604.468-1.2.592-.597.117-1.665.35-2.144.708-.471.357-.825 1.059-1.54 2.358-.714 1.293-2.622.825-3.211 1.059-.597.233-2.268.825-3.572-.35-1.311-1.183-1.672-.833-2.026-.242-.354.592-.714 1.774-2.143 1.417-1.43-.35-2.858.949-4.051 1.182-1.193.234-2.38.117-3.094 0s-1.075-.584-1.664-.584c-.59 0-2.026-.358-3.697.701-1.665 1.059-2.026-.584-2.144-1.175-.118-.585-.714-1.066-1.068-1.65-.36-.592-1.311 0-1.429.584-.118.591-.832 2.124-.832 2.124-.049.103-.618.083-.736.083-.52-.014-.811-.007-1.31.233-.403.186-.798.269-1.242.31-.36.027-.833 0-1.02.357-.11.214-.048.475-.27.626-.146.103-.361.069-.528.13a2.173 2.173 0 0 0-.554.338C1.172 54.01.257 54.69.028 55c0 0 1.193-.014 1.422 0 .125.007.256 0 .388 0h118.19l-.028-.007Z"/></g><defs><clipPath id="a"><path fill="#fff" d="M0 0h120v55H0z"/></clipPath></defs></svg>