<svg width="961" height="194" viewBox="0 0 961 194" fill="none" xmlns="http://www.w3.org/2000/svg">
<g clip-path="url(#clip0_747_95)">
<path d="M628.579 193.982C612.301 193.982 596.042 193.667 579.82 193.021C476.797 188.956 374.956 172.032 277.106 142.692L279.212 135.689C376.471 164.845 477.702 181.676 580.116 185.704C621.983 187.367 664.275 186.868 705.846 184.226L706.308 191.524C680.589 193.15 654.593 193.963 628.579 193.963V193.982Z" fill="#221915"/>
<mask id="mask0_747_95" style="mask-type:luminance" maskUnits="userSpaceOnUse" x="0" y="0" width="961" height="180">
<path d="M0 4.19405C85.8589 56.4447 178.074 97.7944 274.039 127.098C372.96 157.288 476.021 174.674 580.374 178.794C709.874 183.893 837.618 168.651 960.762 133.453V128.391C837.711 163.717 710.022 179.034 580.577 173.935C476.649 169.833 373.995 152.521 275.48 122.442C179.884 93.2493 88.0575 52.0659 2.53124 0.0184326L0 4.19405Z" fill="white"/>
</mask>
<g mask="url(#mask0_747_95)">
<path d="M1.50072 -37.8222L-7.2373 183.59L959.276 221.734L968.014 0.321115L1.50072 -37.8222Z" fill="url(#paint0_linear_747_95)"/>
</g>
<path d="M628.652 167.136C612.726 167.136 596.799 166.822 580.873 166.193C444.445 160.817 311.545 132.77 185.889 82.8473L186.794 80.5747C312.211 130.405 444.833 158.378 580.984 163.755C665.826 167.099 750.872 161.5 833.757 147.107L834.182 149.509C766.688 161.223 697.753 167.136 628.671 167.136H628.652Z" fill="#C8161E"/>
</g>
<defs>
<linearGradient id="paint0_linear_747_95" x1="-2.48507" y1="66.7298" x2="1001.88" y2="106.367" gradientUnits="userSpaceOnUse">
<stop stop-color="#8FC31F"/>
<stop offset="0.4" stop-color="#93C526"/>
<stop offset="1" stop-color="#8FC31F"/>
</linearGradient>
<clipPath id="clip0_747_95">
<rect width="960.762" height="194" fill="white"/>
</clipPath>
</defs>
</svg>
